<svg id="Ebene_1" data-name="Ebene 1" xmlns="http://www.w3.org/2000/svg" xmlns:xlink="http://www.w3.org/1999/xlink" viewBox="0 0 268.01 374.94"><defs><style>.cls-1{fill:#fff;}.cls-2{fill:url(#Unbenannter_Verlauf_18);}.cls-3{fill:url(#Unbenannter_Verlauf_47);}</style><radialGradient id="Unbenannter_Verlauf_18" cx="392.34" cy="222.14" r="109.66" gradientTransform="translate(6.88 2.47) scale(0.98)" gradientUnits="userSpaceOnUse"><stop offset="0" stop-color="#fc0"/><stop offset="0.09" stop-color="#ffc800"/><stop offset="0.17" stop-color="#ffbd00"/><stop offset="0.25" stop-color="#ffab00"/><stop offset="0.33" stop-color="#ff9100"/><stop offset="0.4" stop-color="#ff7000"/><stop offset="0.48" stop-color="#ff4700"/><stop offset="0.55" stop-color="#ff1800"/><stop offset="0.58" stop-color="red"/><stop offset="1" stop-color="red"/></radialGradient><radialGradient id="Unbenannter_Verlauf_47" cx="326.23" cy="228.45" r="100.55" gradientTransform="translate(6.88 2.47) scale(0.98)" gradientUnits="userSpaceOnUse"><stop offset="0" stop-color="#00b4e6"/><stop offset="0.2" stop-color="#00b0e3"/><stop offset="0.39" stop-color="#01a5db"/><stop offset="0.57" stop-color="#0292cd"/><stop offset="0.75" stop-color="#0377ba"/><stop offset="0.93" stop-color="#0455a1"/><stop offset="1" stop-color="#054696"/></radialGradient></defs><title>twint_logo_h_pos_bg_rgb</title><rect width="268.01" height="374.94" rx="7.92" ry="7.92"/><polygon class="cls-1" points="235.2 298.01 198.67 298.01 198.67 306.7 211.77 306.7 211.77 343.98 222.1 343.98 222.1 306.7 235.2 306.7 235.2 298.01 235.2 298.01"/><polygon class="cls-1" points="69.35 298.01 69.35 306.7 56.25 306.7 56.25 343.98 45.91 343.98 45.91 306.7 32.81 306.7 32.81 298.01 69.35 298.01 69.35 298.01"/><path class="cls-1" d="M440.34,420.29c11.48,0,18.1,7.33,18.1,17.93v29.49H448.19V438c0-4-2.72-8.17-7.75-8.17s-7.78,3.54-7.78,8.17v29.72H422.45V438.22c0-10.6,6.4-17.93,17.89-17.93Z" transform="translate(-265.31 -123.73)"/><polygon class="cls-1" points="136.43 298.01 146.7 298.01 146.7 343.98 136.43 343.98 136.43 298.01 136.43 298.01"/><polyline class="cls-1" points="101.8 316.23 101.46 318.27 91.87 343.98 87.68 343.98 74.62 298.01 84.72 298.01 90.94 322.16 91.31 324.75 91.81 322.16 100.14 298.01 103.47 298.01 111.78 322.16 112.29 324.75 112.66 322.16 118.88 298.01 128.98 298.01 115.92 343.98 111.73 343.98 102.14 318.27 101.8 316.23"/><path class="cls-1" d="M497.22,210.48a10.13,10.13,0,0,0-4.57-7.91l-88.77-51.25a10.13,10.13,0,0,0-9.13,0L306,202.57a10.13,10.13,0,0,0-4.57,7.91V313a10.13,10.13,0,0,0,4.57,7.91l88.77,51.25a10.13,10.13,0,0,0,9.13,0l88.77-51.25a10.13,10.13,0,0,0,4.57-7.91Z" transform="translate(-265.31 -123.73)"/><path class="cls-2" d="M446,260.15l-23.3,34.19L410.7,276l13.81-20.59c2.57-3.68,8-13.74,1.7-27.54a28.67,28.67,0,0,0-52,0c-6.44,13.24-.85,23.68,1.57,27.13,0,0,7.62,11.25,14.05,20.71l10.37,15,15.64,23.85c.1.16,2.58,4,7,4,4.18,0,6.72-3.72,7-4.19l36.58-54.15Zm-45.84.88S394,251.77,390,245.3a11.58,11.58,0,1,1,20.15,0C406.23,251.77,400.12,261,400.12,261Z" transform="translate(-265.31 -123.73)"/><path class="cls-3" d="M377.63,293.24l-22.91-32.18s-6.11-9.29-10.07-15.76A11.53,11.53,0,0,1,354.73,228a12.19,12.19,0,0,1,3.36.46l8.1-14.8a28.56,28.56,0,0,0-37.37,14.2c-6.44,13.24-.85,23.68,1.57,27.13l40.07,59.34c.33.51,2.88,4.26,7.13,4.26s6.74-3.66,7-4.13L396.7,296l-10.37-15.29Z" transform="translate(-265.31 -123.73)"/></svg>