<svg id="Ebene_1" data-name="Ebene 1" xmlns="http://www.w3.org/2000/svg" xmlns:xlink="http://www.w3.org/1999/xlink" viewBox="0 0 569.48 215.81"><defs><style>.cls-1{fill:#fff;}.cls-2{fill:url(#Unbenannter_Verlauf_9);}.cls-3{fill:url(#Unbenannter_Verlauf_15);}</style><radialGradient id="Unbenannter_Verlauf_9" cx="237.46" cy="269.28" r="77.47" gradientUnits="userSpaceOnUse"><stop offset="0" stop-color="#fc0"/><stop offset="0.09" stop-color="#ffc800"/><stop offset="0.17" stop-color="#ffbd00"/><stop offset="0.25" stop-color="#ffab00"/><stop offset="0.33" stop-color="#ff9100"/><stop offset="0.4" stop-color="#ff7000"/><stop offset="0.48" stop-color="#ff4700"/><stop offset="0.55" stop-color="#ff1800"/><stop offset="0.58" stop-color="red"/><stop offset="1" stop-color="red"/></radialGradient><radialGradient id="Unbenannter_Verlauf_15" cx="190.76" cy="273.74" r="71.04" gradientUnits="userSpaceOnUse"><stop offset="0" stop-color="#00b4e6"/><stop offset="0.2" stop-color="#00b0e3"/><stop offset="0.39" stop-color="#01a5db"/><stop offset="0.57" stop-color="#0292cd"/><stop offset="0.75" stop-color="#0377ba"/><stop offset="0.93" stop-color="#0455a1"/><stop offset="1" stop-color="#054696"/></radialGradient></defs><title>twint_logo_q_pos_bg_rgb</title><rect width="569.48" height="215.81" rx="7.92" ry="7.92"/><path class="cls-1" d="M313.37,334.54a7.34,7.34,0,0,1-3.31,5.73l-64.31,37.13a7.34,7.34,0,0,1-6.62,0l-64.32-37.13a7.34,7.34,0,0,1-3.31-5.73V260.28a7.34,7.34,0,0,1,3.31-5.73l64.32-37.13a7.34,7.34,0,0,1,6.62,0l64.31,37.13a7.34,7.34,0,0,1,3.31,5.73Z" transform="translate(-136.2 -189.51)"/><polygon class="cls-1" points="534.18 76.12 476.57 76.12 476.57 89.81 497.22 89.81 497.22 148.61 513.52 148.61 513.52 89.81 534.18 89.81 534.18 76.12 534.18 76.12"/><polygon class="cls-1" points="272.65 76.12 215.03 76.12 215.03 89.81 235.69 89.81 235.69 148.61 251.99 148.61 251.99 89.81 272.65 89.81 272.65 76.12 272.65 76.12"/><path class="cls-1" d="M575.49,263.33c-18.11,0-28.2,11.56-28.2,28.28v46.51h16.11V291.26c0-7.29,4.33-12.88,12.27-12.88s12.22,6.64,12.22,12.88v46.86H604V291.61c0-16.72-10.43-28.28-28.54-28.28Z" transform="translate(-136.2 -189.51)"/><polygon class="cls-1" points="378.43 76.12 378.43 148.61 394.62 148.61 394.62 76.12 378.43 76.12 378.43 76.12"/><polyline class="cls-1" points="323.82 104.84 324.36 108.06 339.48 148.61 346.08 148.61 366.69 76.12 350.75 76.12 340.94 114.2 340.36 118.28 339.56 114.2 326.44 76.12 321.19 76.12 308.07 114.2 307.28 118.28 306.7 114.2 296.89 76.12 280.95 76.12 301.56 148.61 308.16 148.61 323.28 108.06 323.82 104.84"/><path class="cls-2" d="M275.92,297.59l-16.75,24.58L250.57,309l9.93-14.8c1.84-2.65,5.77-9.88,1.22-19.8a20.61,20.61,0,0,0-37.38,0,19,19,0,0,0,1.13,19.5s5.48,8.08,10.1,14.89L243,319.53l11.24,17.15a6.41,6.41,0,0,0,5,2.84c3,0,4.83-2.67,5.06-3l26.29-38.92Zm-33,.63s-4.39-6.65-7.24-11.31a8.33,8.33,0,1,1,14.49,0C247.37,291.56,243,298.22,243,298.22Z" transform="translate(-136.2 -189.51)"/><path class="cls-3" d="M226.8,321.38l-16.47-23.13s-4.39-6.68-7.24-11.33a8.29,8.29,0,0,1,7.24-12.43,8.76,8.76,0,0,1,2.41.33l5.82-10.64a20.53,20.53,0,0,0-26.86,10.21,19,19,0,0,0,1.13,19.5l28.8,42.66c.24.37,2.07,3.06,5.13,3.06a6.4,6.4,0,0,0,5.06-3l8.68-13.25-7.45-11Z" transform="translate(-136.2 -189.51)"/></svg>